Coordinates
version=1
nRows=8
nColumns=42
inDegrees=yes

Units are S.I. units (second, meters, Newtons, ...)
If the header above contains a line with 'inDegrees', this indicates whether rotational values are in degrees (yes) or radians (no).

endheader
time	pelvis_tilt	pelvis_list	pelvis_rotation	pelvis_tx	pelvis_ty	pelvis_tz	hip_flexion_r	hip_adduction_r	hip_rotation_r	knee_angle_r	knee_adduction_r	knee_angle_r_beta	ankle_angle_r	subtalar_angle_r	mtp_angle_r	hip_flexion_l	hip_adduction_l	hip_rotation_l	knee_angle_l	knee_adduction_l	knee_angle_l_beta	ankle_angle_l	subtalar_angle_l	mtp_angle_l	lumbar_extension	lumbar_bending	lumbar_rotation	arm_flex_r	arm_add_r	arm_rot_r	elbow_flex_r	pro_sup_r	wrist_flex_r	wrist_dev_r	arm_flex_l	arm_add_l	arm_rot_l	elbow_flex_l	pro_sup_l	wrist_flex_l	wrist_dev_l
      0.83000000	     -4.56454472	     -5.05266548	     -1.78807327	     -0.42758494	      0.85251582	     -0.37386793	     21.76797603	      4.61239043	     -1.25945080	     19.78706394	      6.42464374	      0.34534941	     -0.12594418	    -11.10140214	     -7.79563990	      4.10728539	    -11.84321388	     -3.82530681	     55.18406869	     10.44100962	      0.96314369	     -4.84081033	    -16.54051670	     -7.79563990	     -2.53130102	      8.35732227	      0.76996163	     -2.97371168	    -19.14739227	      0.36775169	     28.30041069	     90.00000001	      0.00000000	      0.00000000	      4.50099141	    -10.02452372	    -12.29564140	     41.83563745	     90.00000001	      0.00000000	      0.00000000
      0.84000000	     -4.64371694	     -5.07678527	     -1.83610403	     -0.41629964	      0.85402261	     -0.37262046	     20.82485234	      4.72763269	     -1.31001108	     19.46010525	      6.43379970	      0.33964291	      0.68765139	    -10.55443632	     -7.78855168	      6.07811372	    -11.98578370	     -3.54696645	     57.86017685	     10.15585603	      1.00985059	     -4.42399296	    -16.63093526	     -7.78855168	     -2.55194475	      8.27718978	      1.16040605	     -2.50125357	    -19.16962814	      0.57887228	     28.48997833	     90.00000001	      0.00000000	      0.00000000	      4.11642653	     -9.87508191	    -12.30908622	     41.85708144	     90.00000001	      0.00000000	      0.00000000
      0.85000000	     -4.61900865	     -4.94643281	     -1.86307146	     -0.40514486	      0.85560910	     -0.37150987	     19.76436442	      4.60927956	     -1.48180839	     19.11451574	      6.51277999	      0.33361123	      1.29862087	    -10.03034519	     -7.78369554	      7.96617150	    -11.86280876	     -3.16063504	     60.16134104	      9.89751150	      1.05001348	     -3.92600124	    -16.51395097	     -7.78369554	     -2.71302360	      7.98744970	      1.62021792	     -2.01246171	    -19.15109036	      0.73775296	     28.72558447	     90.00000001	      0.00000000	      0.00000000	      3.85137813	     -9.74608101	    -12.31416630	     41.88182194	     90.00000001	      0.00000000	      0.00000000
      0.86000000	     -4.72565065	     -4.85455219	     -1.83632594	     -0.39420700	      0.85696456	     -0.37043952	     18.78601464	      4.55656549	     -1.63843820	     18.60559826	      6.54592131	      0.32472895	      2.05680790	     -9.45239727	     -7.77893146	     10.10734316	    -11.75829995	     -2.76973209	     62.25560152	      9.59292673	      1.08656522	     -3.17578167	    -16.51484612	     -7.77893146	     -2.72489952	      7.73764642	      1.95381356	     -1.47118857	    -19.13314086	      0.93149334	     28.96408328	     90.00000001	      0.00000000	      0.00000000	      3.54511290	     -9.63741293	    -12.32653609	     41.86219964	     90.00000001	      0.00000000	      0.00000000
      0.87000000	     -4.90841368	     -4.74410377	     -1.84777376	     -0.38329097	      0.85812521	     -0.36942627	     17.86324428	      4.52197271	     -1.77122902	     18.01649642	      6.48524803	      0.31444718	      2.93461767	     -8.71051977	     -7.77300473	     12.29881996	    -11.61118004	     -2.33178787	     63.95881117	      9.43885584	      1.11629184	     -2.13797085	    -16.50257787	     -7.77300473	     -2.61047781	      7.49582734	      2.27329303	     -0.86723065	    -19.13919555	      1.24531568	     29.18649335	     90.00000001	      0.00000000	      0.00000000	      3.08041106	     -9.52290305	    -12.37314919	     41.74349296	     90.00000001	      0.00000000	      0.00000000
      0.88000000	     -5.00005900	     -4.55803330	     -1.83561093	     -0.37251872	      0.85925336	     -0.36846881	     16.86199392	      4.36880452	     -1.98963019	     17.44985134	      6.46650503	      0.30455736	      3.73621599	     -7.85654912	     -7.76632018	     14.38217949	    -11.31629249	     -1.72676434	     65.25119955	      9.44463516	      1.13884827	     -0.97249343	    -16.32347441	     -7.76632018	     -2.62115592	      7.13017968	      2.60647347	     -0.23942536	    -19.14700274	      1.65452830	     29.45041293	     90.00000001	      0.00000000	      0.00000000	      2.73569003	     -9.43176983	    -12.43990055	     41.59914694	     90.00000001	      0.00000000	      0.00000000
      0.89000000	     -5.04401597	     -4.33479154	     -1.76896816	     -0.36185512	      0.86028022	     -0.36762980	     15.89288615	      4.11575444	     -2.82218922	     17.06168765	      6.36915492	      0.29778263	      4.73973996	     -5.99857147	     -7.74283240	     16.36971841	    -10.93941597	     -0.70160494	     66.10062316	      9.89777530	      1.15367351	      0.30652250	    -16.11632776	     -7.74283240	     -2.70376576	      6.71711570	      2.80423379	      0.51983051	    -19.37704075	      3.24919579	     29.81158337	     90.00000001	      0.00000000	      0.00000000	      2.50841095	     -9.38391640	    -12.77988527	     41.24626559	     90.00000001	      0.00000000	      0.00000000
      0.90000000	     -5.06854152	     -4.09186314	     -1.69482518	     -0.35114305	      0.86118122	     -0.36685669	     14.81040362	      3.86737301	     -3.06089963	     16.48294977	      6.40873224	      0.28768174	      5.26324360	     -5.53103106	     -7.73854364	     18.34341902	    -10.45603397	     -0.32901426	     66.63029494	      9.70090127	      1.16291803	      1.24402509	    -15.80132691	     -7.73854364	     -2.77981001	      6.26477232	      3.20185050	      0.96371968	    -19.34190126	      3.36038271	     30.19714648	     90.00000001	      0.00000000	      0.00000000	      2.21381520	     -9.26797746	    -12.75959745	     41.14816330	     90.00000001	      0.00000000	      0.00000000
